<?xml version="1.0" encoding="UTF-8"?>
<svg id="Capa_2" data-name="Capa 2" xmlns="http://www.w3.org/2000/svg" viewBox="0 0 148.76 96.62">
  <defs>
    <style>
      .cls-1 {
        stroke: #000;
        stroke-miterlimit: 10;
      }
    </style>
  </defs>
  <g id="Capa_1-2" data-name="Capa 1">
    <path class="cls-1" d="M6.71,39.9L.58,15.12c-.32-1.3.39-2.64,1.59-2.99l1.61-.47c1.2-.35,2.43.42,2.75,1.72l1.71,6.93c.32,1.3,1.55,2.07,2.75,1.72l6.16-1.8c1.2-.35,1.91-1.69,1.59-2.99l-1.71-6.93c-.32-1.3.39-2.64,1.59-2.99l1.61-.47c1.2-.35,2.43.42,2.75,1.72l6.13,24.78c.32,1.3-.39,2.64-1.59,2.99l-1.61.47c-1.2.35-2.43-.42-2.75-1.72l-1.77-7.17c-.32-1.3-1.55-2.07-2.75-1.72l-6.16,1.8c-1.2.35-1.91,1.69-1.59,2.99l1.77,7.17c.32,1.3-.39,2.64-1.59,2.99l-1.61.47c-1.2.35-2.43-.42-2.75-1.72Z"/>
    <path class="cls-1" d="M33.04,4.14l1.65-.23c1.23-.17,2.36.77,2.52,2.11l1.91,16.04c.45,3.81,2.62,5.62,6.05,5.14,3.47-.49,5.17-2.93,4.73-6.65l-1.91-16.04c-.16-1.34.71-2.56,1.94-2.73l1.65-.23c1.23-.17,2.36.77,2.52,2.11l1.96,16.49c.86,7.2-3.11,12.5-10.12,13.49-6.97.98-12.01-3.02-12.87-10.26l-1.96-16.49c-.16-1.34.71-2.56,1.94-2.73Z"/>
    <path class="cls-1" d="M62.3,29.31l-.42-26.48c-.02-1.12.8-2.04,1.83-2.06l14.13-.26c1.03-.02,1.88.87,1.9,1.99l.03,2.14c.02,1.12-.8,2.04-1.83,2.06l-7.97.15c-1.03.02-1.85.94-1.83,2.06l.03,1.93c.02,1.12.87,2.01,1.9,1.99l6.64-.12c1.03-.02,1.88.87,1.9,1.99l.03,1.81c.02,1.12-.8,2.04-1.83,2.06l-6.64.12c-1.03.02-1.85.94-1.83,2.06l.04,2.26c.02,1.12.87,2.01,1.9,1.99l7.97-.15c1.03-.02,1.88.87,1.9,1.99l.03,2.14c.02,1.12-.8,2.04-1.83,2.06l-14.13.27c-1.03.02-1.88-.87-1.9-1.99Z"/>
    <path class="cls-1" d="M93.22,25.73l7.04.59c1.11.09,1.94,1.15,1.86,2.35l-.13,1.8c-.08,1.21-1.05,2.11-2.17,2.02l-13.18-1.09c-1.11-.09-1.94-1.15-1.86-2.35l1.84-26.08c.09-1.21,1.05-2.11,2.17-2.02l2.11.18c1.11.09,1.94,1.15,1.86,2.35l-1.4,19.91c-.08,1.21.75,2.26,1.86,2.35Z"/>
    <path class="cls-1" d="M114.09,28.59l6.96,1.3c1.1.21,1.83,1.34,1.65,2.53l-.28,1.78c-.19,1.19-1.23,1.99-2.33,1.79l-13.02-2.43c-1.1-.2-1.84-1.34-1.65-2.53l4.08-25.77c.19-1.19,1.23-1.99,2.33-1.79l2.09.39c1.1.21,1.84,1.34,1.65,2.53l-3.12,19.67c-.19,1.19.55,2.33,1.65,2.53Z"/>
    <path class="cls-1" d="M124.36,34.99l16.13-24.03c.29-.43.8-.62,1.27-.47l4.18,1.34c.47.15.81.61.83,1.14l1.49,29.68c.04.87-.72,1.53-1.49,1.28l-3.88-1.25c-.48-.15-.82-.62-.83-1.17l-.16-4.96c-.02-.54-.35-1.01-.83-1.17l-7.11-2.28c-.48-.15-.99.04-1.28.48l-2.65,4.08c-.29.44-.8.64-1.28.48l-3.78-1.21c-.77-.25-1.08-1.25-.61-1.95ZM137.88,28.53l2.22.71c.76.24,1.52-.39,1.49-1.26l-.17-5.12c-.02-1.08-.04-2.34.05-3.08-.29.64-.88,1.65-1.5,2.62l-2.7,4.19c-.46.71-.14,1.69.62,1.94Z"/>
    <g>
      <path class="cls-1" d="M4.85,51.94l.97-.3c1.2-.37,2.44.46,2.76,1.86l3.35,14.68c.81,3.55,2.93,4.98,5.92,4.06,3.02-.93,4.27-3.48,3.48-6.95l-3.35-14.68c-.32-1.4.4-2.83,1.6-3.2l.97-.3c1.2-.37,2.44.46,2.76,1.86l3.44,15.1c1.53,6.72-1.42,12.28-7.54,14.16-6.08,1.87-10.97-1.24-12.51-8l-3.44-15.1c-.32-1.4.4-2.83,1.6-3.2Z"/>
      <path class="cls-1" d="M33.23,71.78l-3.13-24.93c-.14-1.1.52-2.12,1.46-2.28l7.91-1.34c6.06-1.02,9.91,1.79,10.66,7.77.4,3.15-.28,5.7-2.02,7.68-.6.68-.75,1.73-.3,2.55l3.6,6.65c.66,1.23.02,2.85-1.22,3.05l-2.2.37c-.68.12-1.36-.25-1.72-.94l-3.81-7.23c-.36-.68-1.04-1.05-1.72-.94l-1.37.23c-.95.16-1.6,1.18-1.46,2.28l.77,6.14c.14,1.1-.52,2.12-1.46,2.28l-2.03.34c-.95.16-1.82-.6-1.96-1.7ZM36.71,55.2c.14,1.1,1.02,1.86,1.96,1.7l2.43-.41c2.39-.4,3.59-2.04,3.28-4.5-.3-2.42-1.78-3.53-4.21-3.12l-2.46.42c-.94.16-1.6,1.18-1.46,2.28l.46,3.64Z"/>
      <path class="cls-1" d="M55.05,43.25c-.05-1.2.75-2.21,1.79-2.27l8.59-.43c5.06-.26,8.23,2.67,8.42,7.67.07,1.92-.33,3.55-1.18,4.82-.68,1.01-.61,2.46.21,3.31,1.08,1.13,1.69,2.79,1.77,4.91.2,5.17-2.68,8.2-8.12,8.47l-8.59.43c-1.03.05-1.9-.88-1.95-2.07l-.94-24.84ZM60.76,48.57l.08,2.01c.05,1.2.92,2.13,1.95,2.07l2.51-.13c1.97-.1,3.01-1.3,2.93-3.39-.08-2.05-1.17-3.06-3.17-2.96l-2.51.13c-1.03.05-1.83,1.07-1.79,2.27ZM61.2,60.28l.07,1.93c.05,1.2.92,2.13,1.95,2.07l2.79-.14c2.04-.1,3.05-1.22,2.97-3.39-.08-1.97-1.2-2.98-3.21-2.88l-2.78.14c-1.03.05-1.83,1.07-1.79,2.26Z"/>
      <path class="cls-1" d="M75.97,67.77l9.53-26.44c.16-.43.53-.7.93-.68l4.02.25c.4.03.75.34.86.79l7.01,27.47c.19.73-.31,1.46-.96,1.42l-3.8-.24c-.41-.03-.76-.35-.87-.81l-1.12-4.72c-.11-.46-.46-.79-.87-.81l-6.75-.42c-.41-.03-.78.25-.94.69l-1.58,4.57c-.15.44-.53.72-.94.69l-3.71-.23c-.66-.04-1.08-.83-.83-1.53ZM86.44,58.36l2.31.14c.65.04,1.14-.67.97-1.4l-1.16-4.86c-.23-1-.48-2.16-.55-2.88-.13.66-.46,1.75-.81,2.8l-1.6,4.69c-.24.7.18,1.47.84,1.51Z"/>
      <path class="cls-1" d="M101.27,68.84l3.51-24.49c.17-1.19,1.14-2,2.17-1.8l2.5.48c.62.12,1.16.6,1.41,1.27l4.86,12.64c.76,1.98,3.28,1.61,3.59-.53l1.29-9c.17-1.19,1.14-2,2.17-1.8l1.64.32c1.03.2,1.72,1.33,1.55,2.52l-3.51,24.49c-.17,1.19-1.14,2-2.17,1.8l-2.51-.48c-.62-.12-1.15-.6-1.41-1.27l-4.87-12.62c-.76-1.98-3.28-1.61-3.58.54l-1.29,8.97c-.17,1.19-1.14,2-2.17,1.8l-1.64-.32c-1.03-.2-1.72-1.33-1.55-2.52Z"/>
      <path class="cls-1" d="M125.14,74.32l14.5-23.19c.24-.38.65-.54,1.04-.41l3.86,1.32c.39.13.66.53.68,1l1.39,28.6c.04.76-.59,1.34-1.22,1.12l-3.66-1.24c-.39-.13-.67-.55-.68-1.02l-.15-4.89c-.01-.48-.29-.89-.68-1.02l-6.48-2.21c-.39-.13-.81.04-1.05.43l-2.44,4.02c-.23.39-.66.56-1.05.43l-3.56-1.21c-.63-.22-.89-1.09-.5-1.71ZM137.18,67.95l2.22.76c.62.21,1.25-.35,1.22-1.1l-.17-5.04c-.02-1.04-.04-2.23.04-2.95-.26.61-.79,1.58-1.34,2.5l-2.48,4.13c-.37.62-.11,1.48.51,1.69Z"/>
    </g>
    <path d="M119.09,86.75c-13.06,6.32-27.71,9.87-43.2,9.87s-30.06-3.53-43.09-9.82c3.58-.72,7.22-1.35,10.91-1.88,10.09,3.46,20.91,5.34,32.18,5.34s22.16-1.89,32.28-5.37c3.69.52,7.33,1.14,10.92,1.86Z"/>
  </g>
</svg>